<mxfile host="app.diagrams.net" agent="Mozilla/5.0 (Windows NT 10.0; Win64; x64) AppleWebKit/537.36 (KHTML, like Gecko) Chrome/127.0.0.0 Safari/537.36 OPR/113.0.0.0" version="24.8.0">
  <diagram name="Página-1" id="d--r41uojTDXwLxNtaar">
    <mxGraphModel dx="2786" dy="2837" grid="1" gridSize="10" guides="1" tooltips="1" connect="1" arrows="1" fold="1" page="1" pageScale="1" pageWidth="827" pageHeight="1169" math="0" shadow="0">
      <root>
        <mxCell id="0" />
        <mxCell id="1" parent="0" />
        <mxCell id="s3ld1V5aeFY15KHkYGV4-1" value="Médico" style="rounded=0;whiteSpace=wrap;html=1;fillColor=#dae8fc;strokeColor=#6c8ebf;" vertex="1" parent="1">
          <mxGeometry x="380" y="90" width="120" height="60" as="geometry" />
        </mxCell>
        <mxCell id="s3ld1V5aeFY15KHkYGV4-91" style="edgeStyle=orthogonalEdgeStyle;rounded=0;orthogonalLoop=1;jettySize=auto;html=1;" edge="1" parent="1" source="s3ld1V5aeFY15KHkYGV4-2" target="s3ld1V5aeFY15KHkYGV4-1">
          <mxGeometry relative="1" as="geometry" />
        </mxCell>
        <mxCell id="s3ld1V5aeFY15KHkYGV4-2" value="Especialidades" style="rounded=0;whiteSpace=wrap;html=1;fillColor=#dae8fc;strokeColor=#6c8ebf;" vertex="1" parent="1">
          <mxGeometry x="870" y="320" width="120" height="60" as="geometry" />
        </mxCell>
        <mxCell id="s3ld1V5aeFY15KHkYGV4-3" value="Pacientes" style="rounded=0;whiteSpace=wrap;html=1;fillColor=#dae8fc;strokeColor=#6c8ebf;" vertex="1" parent="1">
          <mxGeometry x="870" y="-700" width="120" height="60" as="geometry" />
        </mxCell>
        <mxCell id="s3ld1V5aeFY15KHkYGV4-125" style="edgeStyle=orthogonalEdgeStyle;rounded=0;orthogonalLoop=1;jettySize=auto;html=1;" edge="1" parent="1" source="s3ld1V5aeFY15KHkYGV4-4" target="s3ld1V5aeFY15KHkYGV4-3">
          <mxGeometry relative="1" as="geometry" />
        </mxCell>
        <mxCell id="s3ld1V5aeFY15KHkYGV4-4" value="Convênios" style="rounded=0;whiteSpace=wrap;html=1;fillColor=#dae8fc;strokeColor=#6c8ebf;" vertex="1" parent="1">
          <mxGeometry x="380" y="-700" width="120" height="60" as="geometry" />
        </mxCell>
        <mxCell id="s3ld1V5aeFY15KHkYGV4-144" style="edgeStyle=orthogonalEdgeStyle;rounded=0;orthogonalLoop=1;jettySize=auto;html=1;" edge="1" parent="1" source="s3ld1V5aeFY15KHkYGV4-5" target="s3ld1V5aeFY15KHkYGV4-1">
          <mxGeometry relative="1" as="geometry" />
        </mxCell>
        <mxCell id="s3ld1V5aeFY15KHkYGV4-147" style="edgeStyle=orthogonalEdgeStyle;rounded=0;orthogonalLoop=1;jettySize=auto;html=1;" edge="1" parent="1" source="s3ld1V5aeFY15KHkYGV4-5" target="s3ld1V5aeFY15KHkYGV4-3">
          <mxGeometry relative="1" as="geometry" />
        </mxCell>
        <mxCell id="s3ld1V5aeFY15KHkYGV4-148" style="edgeStyle=orthogonalEdgeStyle;rounded=0;orthogonalLoop=1;jettySize=auto;html=1;" edge="1" parent="1" source="s3ld1V5aeFY15KHkYGV4-5" target="s3ld1V5aeFY15KHkYGV4-2">
          <mxGeometry relative="1" as="geometry" />
        </mxCell>
        <mxCell id="s3ld1V5aeFY15KHkYGV4-5" value="Consulta" style="rounded=0;whiteSpace=wrap;html=1;fillColor=#dae8fc;strokeColor=#6c8ebf;" vertex="1" parent="1">
          <mxGeometry x="870" y="90" width="120" height="60" as="geometry" />
        </mxCell>
        <mxCell id="s3ld1V5aeFY15KHkYGV4-163" style="edgeStyle=orthogonalEdgeStyle;rounded=0;orthogonalLoop=1;jettySize=auto;html=1;" edge="1" parent="1" source="s3ld1V5aeFY15KHkYGV4-6" target="s3ld1V5aeFY15KHkYGV4-5">
          <mxGeometry relative="1" as="geometry" />
        </mxCell>
        <mxCell id="s3ld1V5aeFY15KHkYGV4-6" value="Receitas" style="rounded=0;whiteSpace=wrap;html=1;fillColor=#dae8fc;strokeColor=#6c8ebf;" vertex="1" parent="1">
          <mxGeometry x="870" y="-270" width="120" height="60" as="geometry" />
        </mxCell>
        <mxCell id="s3ld1V5aeFY15KHkYGV4-54" style="edgeStyle=orthogonalEdgeStyle;rounded=0;orthogonalLoop=1;jettySize=auto;html=1;" edge="1" parent="1" source="s3ld1V5aeFY15KHkYGV4-10" target="s3ld1V5aeFY15KHkYGV4-1">
          <mxGeometry relative="1" as="geometry" />
        </mxCell>
        <mxCell id="s3ld1V5aeFY15KHkYGV4-10" value="Id_médico" style="ellipse;whiteSpace=wrap;html=1;fillColor=#f8cecc;strokeColor=#b85450;" vertex="1" parent="1">
          <mxGeometry x="240" y="-100" width="120" height="80" as="geometry" />
        </mxCell>
        <mxCell id="s3ld1V5aeFY15KHkYGV4-56" style="edgeStyle=orthogonalEdgeStyle;rounded=0;orthogonalLoop=1;jettySize=auto;html=1;" edge="1" parent="1" source="s3ld1V5aeFY15KHkYGV4-11" target="s3ld1V5aeFY15KHkYGV4-1">
          <mxGeometry relative="1" as="geometry" />
        </mxCell>
        <mxCell id="s3ld1V5aeFY15KHkYGV4-11" value="nome" style="ellipse;whiteSpace=wrap;html=1;fillColor=#f8cecc;strokeColor=#b85450;" vertex="1" parent="1">
          <mxGeometry x="520" y="-100" width="120" height="80" as="geometry" />
        </mxCell>
        <mxCell id="s3ld1V5aeFY15KHkYGV4-82" style="edgeStyle=orthogonalEdgeStyle;rounded=0;orthogonalLoop=1;jettySize=auto;html=1;" edge="1" parent="1" source="s3ld1V5aeFY15KHkYGV4-14" target="s3ld1V5aeFY15KHkYGV4-1">
          <mxGeometry relative="1" as="geometry" />
        </mxCell>
        <mxCell id="s3ld1V5aeFY15KHkYGV4-14" value="telefone" style="ellipse;whiteSpace=wrap;html=1;fillColor=#f8cecc;strokeColor=#b85450;" vertex="1" parent="1">
          <mxGeometry x="520" y="-210" width="120" height="80" as="geometry" />
        </mxCell>
        <mxCell id="s3ld1V5aeFY15KHkYGV4-81" style="edgeStyle=orthogonalEdgeStyle;rounded=0;orthogonalLoop=1;jettySize=auto;html=1;" edge="1" parent="1" source="s3ld1V5aeFY15KHkYGV4-15" target="s3ld1V5aeFY15KHkYGV4-1">
          <mxGeometry relative="1" as="geometry" />
        </mxCell>
        <mxCell id="s3ld1V5aeFY15KHkYGV4-15" value="endereço" style="ellipse;whiteSpace=wrap;html=1;fillColor=#f8cecc;strokeColor=#b85450;" vertex="1" parent="1">
          <mxGeometry x="240" y="-210" width="120" height="80" as="geometry" />
        </mxCell>
        <mxCell id="s3ld1V5aeFY15KHkYGV4-19" value="tipo" style="ellipse;whiteSpace=wrap;html=1;fillColor=#f8cecc;strokeColor=#b85450;" vertex="1" parent="1">
          <mxGeometry x="380" y="-210" width="120" height="80" as="geometry" />
        </mxCell>
        <mxCell id="s3ld1V5aeFY15KHkYGV4-75" style="edgeStyle=orthogonalEdgeStyle;rounded=0;orthogonalLoop=1;jettySize=auto;html=1;" edge="1" parent="1" source="s3ld1V5aeFY15KHkYGV4-68" target="s3ld1V5aeFY15KHkYGV4-19">
          <mxGeometry relative="1" as="geometry" />
        </mxCell>
        <mxCell id="s3ld1V5aeFY15KHkYGV4-68" value="especialista" style="rounded=0;whiteSpace=wrap;html=1;fillColor=#e1d5e7;strokeColor=#9673a6;" vertex="1" parent="1">
          <mxGeometry x="240" y="-370" width="120" height="60" as="geometry" />
        </mxCell>
        <mxCell id="s3ld1V5aeFY15KHkYGV4-72" style="edgeStyle=orthogonalEdgeStyle;rounded=0;orthogonalLoop=1;jettySize=auto;html=1;" edge="1" parent="1" source="s3ld1V5aeFY15KHkYGV4-70" target="s3ld1V5aeFY15KHkYGV4-19">
          <mxGeometry relative="1" as="geometry" />
        </mxCell>
        <mxCell id="s3ld1V5aeFY15KHkYGV4-74" style="edgeStyle=orthogonalEdgeStyle;rounded=0;orthogonalLoop=1;jettySize=auto;html=1;" edge="1" parent="1" source="s3ld1V5aeFY15KHkYGV4-69" target="s3ld1V5aeFY15KHkYGV4-19">
          <mxGeometry relative="1" as="geometry" />
        </mxCell>
        <mxCell id="s3ld1V5aeFY15KHkYGV4-69" value="&amp;nbsp;residente" style="rounded=0;whiteSpace=wrap;html=1;fillColor=#e1d5e7;strokeColor=#9673a6;" vertex="1" parent="1">
          <mxGeometry x="520" y="-370" width="120" height="60" as="geometry" />
        </mxCell>
        <mxCell id="s3ld1V5aeFY15KHkYGV4-71" style="edgeStyle=orthogonalEdgeStyle;rounded=0;orthogonalLoop=1;jettySize=auto;html=1;" edge="1" parent="1" source="s3ld1V5aeFY15KHkYGV4-70" target="s3ld1V5aeFY15KHkYGV4-19">
          <mxGeometry relative="1" as="geometry" />
        </mxCell>
        <mxCell id="s3ld1V5aeFY15KHkYGV4-70" value="generalista" style="rounded=0;whiteSpace=wrap;html=1;fillColor=#e1d5e7;strokeColor=#9673a6;" vertex="1" parent="1">
          <mxGeometry x="380" y="-370" width="120" height="60" as="geometry" />
        </mxCell>
        <mxCell id="s3ld1V5aeFY15KHkYGV4-80" style="edgeStyle=orthogonalEdgeStyle;rounded=0;orthogonalLoop=1;jettySize=auto;html=1;" edge="1" parent="1" source="s3ld1V5aeFY15KHkYGV4-76" target="s3ld1V5aeFY15KHkYGV4-1">
          <mxGeometry relative="1" as="geometry" />
        </mxCell>
        <mxCell id="s3ld1V5aeFY15KHkYGV4-76" value="data_nacimento" style="ellipse;whiteSpace=wrap;html=1;fillColor=#f8cecc;strokeColor=#b85450;" vertex="1" parent="1">
          <mxGeometry x="380" y="-100" width="120" height="80" as="geometry" />
        </mxCell>
        <mxCell id="s3ld1V5aeFY15KHkYGV4-90" style="edgeStyle=orthogonalEdgeStyle;rounded=0;orthogonalLoop=1;jettySize=auto;html=1;" edge="1" parent="1" source="s3ld1V5aeFY15KHkYGV4-87" target="s3ld1V5aeFY15KHkYGV4-2">
          <mxGeometry relative="1" as="geometry" />
        </mxCell>
        <mxCell id="s3ld1V5aeFY15KHkYGV4-87" value="nome_especialidade" style="ellipse;whiteSpace=wrap;html=1;fillColor=#f8cecc;strokeColor=#b85450;" vertex="1" parent="1">
          <mxGeometry x="970" y="520" width="120" height="80" as="geometry" />
        </mxCell>
        <mxCell id="s3ld1V5aeFY15KHkYGV4-89" style="edgeStyle=orthogonalEdgeStyle;rounded=0;orthogonalLoop=1;jettySize=auto;html=1;" edge="1" parent="1" source="s3ld1V5aeFY15KHkYGV4-88" target="s3ld1V5aeFY15KHkYGV4-2">
          <mxGeometry relative="1" as="geometry" />
        </mxCell>
        <mxCell id="s3ld1V5aeFY15KHkYGV4-88" value="id_especialidade" style="ellipse;whiteSpace=wrap;html=1;fillColor=#f8cecc;strokeColor=#b85450;" vertex="1" parent="1">
          <mxGeometry x="770" y="520" width="120" height="80" as="geometry" />
        </mxCell>
        <mxCell id="s3ld1V5aeFY15KHkYGV4-111" style="edgeStyle=orthogonalEdgeStyle;rounded=0;orthogonalLoop=1;jettySize=auto;html=1;" edge="1" parent="1" source="s3ld1V5aeFY15KHkYGV4-92" target="s3ld1V5aeFY15KHkYGV4-96">
          <mxGeometry relative="1" as="geometry" />
        </mxCell>
        <mxCell id="s3ld1V5aeFY15KHkYGV4-92" value="RG" style="ellipse;whiteSpace=wrap;html=1;fillColor=#f8cecc;strokeColor=#b85450;" vertex="1" parent="1">
          <mxGeometry x="1290" y="-650" width="120" height="80" as="geometry" />
        </mxCell>
        <mxCell id="s3ld1V5aeFY15KHkYGV4-110" style="edgeStyle=orthogonalEdgeStyle;rounded=0;orthogonalLoop=1;jettySize=auto;html=1;" edge="1" parent="1" source="s3ld1V5aeFY15KHkYGV4-93" target="s3ld1V5aeFY15KHkYGV4-95">
          <mxGeometry relative="1" as="geometry" />
        </mxCell>
        <mxCell id="s3ld1V5aeFY15KHkYGV4-93" value="CPF" style="ellipse;whiteSpace=wrap;html=1;fillColor=#f8cecc;strokeColor=#b85450;" vertex="1" parent="1">
          <mxGeometry x="1290" y="-750" width="120" height="80" as="geometry" />
        </mxCell>
        <mxCell id="s3ld1V5aeFY15KHkYGV4-109" style="edgeStyle=orthogonalEdgeStyle;rounded=0;orthogonalLoop=1;jettySize=auto;html=1;" edge="1" parent="1" source="s3ld1V5aeFY15KHkYGV4-94" target="s3ld1V5aeFY15KHkYGV4-99">
          <mxGeometry relative="1" as="geometry" />
        </mxCell>
        <mxCell id="s3ld1V5aeFY15KHkYGV4-94" value="email" style="ellipse;whiteSpace=wrap;html=1;fillColor=#f8cecc;strokeColor=#b85450;" vertex="1" parent="1">
          <mxGeometry x="1290" y="-850" width="120" height="80" as="geometry" />
        </mxCell>
        <mxCell id="s3ld1V5aeFY15KHkYGV4-107" style="edgeStyle=orthogonalEdgeStyle;rounded=0;orthogonalLoop=1;jettySize=auto;html=1;" edge="1" parent="1" source="s3ld1V5aeFY15KHkYGV4-95" target="s3ld1V5aeFY15KHkYGV4-98">
          <mxGeometry relative="1" as="geometry" />
        </mxCell>
        <mxCell id="s3ld1V5aeFY15KHkYGV4-95" value="nome" style="ellipse;whiteSpace=wrap;html=1;fillColor=#f8cecc;strokeColor=#b85450;" vertex="1" parent="1">
          <mxGeometry x="1140" y="-810" width="120" height="80" as="geometry" />
        </mxCell>
        <mxCell id="s3ld1V5aeFY15KHkYGV4-114" style="edgeStyle=orthogonalEdgeStyle;rounded=0;orthogonalLoop=1;jettySize=auto;html=1;" edge="1" parent="1" source="s3ld1V5aeFY15KHkYGV4-96" target="s3ld1V5aeFY15KHkYGV4-98">
          <mxGeometry relative="1" as="geometry" />
        </mxCell>
        <mxCell id="s3ld1V5aeFY15KHkYGV4-96" value="endereço" style="ellipse;whiteSpace=wrap;html=1;fillColor=#f8cecc;strokeColor=#b85450;" vertex="1" parent="1">
          <mxGeometry x="1140" y="-610" width="120" height="80" as="geometry" />
        </mxCell>
        <mxCell id="s3ld1V5aeFY15KHkYGV4-113" style="edgeStyle=orthogonalEdgeStyle;rounded=0;orthogonalLoop=1;jettySize=auto;html=1;" edge="1" parent="1" source="s3ld1V5aeFY15KHkYGV4-97" target="s3ld1V5aeFY15KHkYGV4-96">
          <mxGeometry relative="1" as="geometry" />
        </mxCell>
        <mxCell id="s3ld1V5aeFY15KHkYGV4-97" value="telefone" style="ellipse;whiteSpace=wrap;html=1;fillColor=#f8cecc;strokeColor=#b85450;" vertex="1" parent="1">
          <mxGeometry x="1140" y="-510" width="120" height="80" as="geometry" />
        </mxCell>
        <mxCell id="s3ld1V5aeFY15KHkYGV4-105" style="edgeStyle=orthogonalEdgeStyle;rounded=0;orthogonalLoop=1;jettySize=auto;html=1;entryX=1;entryY=0.5;entryDx=0;entryDy=0;" edge="1" parent="1" source="s3ld1V5aeFY15KHkYGV4-98" target="s3ld1V5aeFY15KHkYGV4-3">
          <mxGeometry relative="1" as="geometry" />
        </mxCell>
        <mxCell id="s3ld1V5aeFY15KHkYGV4-98" value="data_nascimento" style="ellipse;whiteSpace=wrap;html=1;fillColor=#f8cecc;strokeColor=#b85450;" vertex="1" parent="1">
          <mxGeometry x="1140" y="-710" width="120" height="80" as="geometry" />
        </mxCell>
        <mxCell id="s3ld1V5aeFY15KHkYGV4-108" style="edgeStyle=orthogonalEdgeStyle;rounded=0;orthogonalLoop=1;jettySize=auto;html=1;" edge="1" parent="1" source="s3ld1V5aeFY15KHkYGV4-99" target="s3ld1V5aeFY15KHkYGV4-95">
          <mxGeometry relative="1" as="geometry" />
        </mxCell>
        <mxCell id="s3ld1V5aeFY15KHkYGV4-99" value="id_paciente" style="ellipse;whiteSpace=wrap;html=1;fillColor=#f8cecc;strokeColor=#b85450;" vertex="1" parent="1">
          <mxGeometry x="1140" y="-910" width="120" height="80" as="geometry" />
        </mxCell>
        <mxCell id="s3ld1V5aeFY15KHkYGV4-100" value="id_convênio" style="ellipse;whiteSpace=wrap;html=1;fillColor=#f8cecc;strokeColor=#b85450;" vertex="1" parent="1">
          <mxGeometry x="1290" y="-560" width="120" height="80" as="geometry" />
        </mxCell>
        <mxCell id="s3ld1V5aeFY15KHkYGV4-112" style="edgeStyle=orthogonalEdgeStyle;rounded=0;orthogonalLoop=1;jettySize=auto;html=1;entryX=0.947;entryY=0.283;entryDx=0;entryDy=0;entryPerimeter=0;" edge="1" parent="1" source="s3ld1V5aeFY15KHkYGV4-100" target="s3ld1V5aeFY15KHkYGV4-97">
          <mxGeometry relative="1" as="geometry" />
        </mxCell>
        <mxCell id="s3ld1V5aeFY15KHkYGV4-120" style="edgeStyle=orthogonalEdgeStyle;rounded=0;orthogonalLoop=1;jettySize=auto;html=1;exitX=1;exitY=0.5;exitDx=0;exitDy=0;" edge="1" parent="1" source="s3ld1V5aeFY15KHkYGV4-115" target="s3ld1V5aeFY15KHkYGV4-4">
          <mxGeometry relative="1" as="geometry" />
        </mxCell>
        <mxCell id="s3ld1V5aeFY15KHkYGV4-115" value="id_convênio" style="ellipse;whiteSpace=wrap;html=1;fillColor=#f8cecc;strokeColor=#b85450;" vertex="1" parent="1">
          <mxGeometry x="250" y="-945" width="120" height="80" as="geometry" />
        </mxCell>
        <mxCell id="s3ld1V5aeFY15KHkYGV4-123" style="edgeStyle=orthogonalEdgeStyle;rounded=0;orthogonalLoop=1;jettySize=auto;html=1;exitX=0;exitY=0.5;exitDx=0;exitDy=0;" edge="1" parent="1" source="s3ld1V5aeFY15KHkYGV4-116" target="s3ld1V5aeFY15KHkYGV4-4">
          <mxGeometry relative="1" as="geometry" />
        </mxCell>
        <mxCell id="s3ld1V5aeFY15KHkYGV4-116" value="nome_convênio" style="ellipse;whiteSpace=wrap;html=1;fillColor=#f8cecc;strokeColor=#b85450;" vertex="1" parent="1">
          <mxGeometry x="510" y="-945" width="120" height="80" as="geometry" />
        </mxCell>
        <mxCell id="s3ld1V5aeFY15KHkYGV4-124" style="edgeStyle=orthogonalEdgeStyle;rounded=0;orthogonalLoop=1;jettySize=auto;html=1;" edge="1" parent="1" source="s3ld1V5aeFY15KHkYGV4-117" target="s3ld1V5aeFY15KHkYGV4-4">
          <mxGeometry relative="1" as="geometry" />
        </mxCell>
        <mxCell id="s3ld1V5aeFY15KHkYGV4-117" value="CNPJ" style="ellipse;whiteSpace=wrap;html=1;fillColor=#f8cecc;strokeColor=#b85450;" vertex="1" parent="1">
          <mxGeometry x="380" y="-850" width="120" height="80" as="geometry" />
        </mxCell>
        <mxCell id="s3ld1V5aeFY15KHkYGV4-122" style="edgeStyle=orthogonalEdgeStyle;rounded=0;orthogonalLoop=1;jettySize=auto;html=1;" edge="1" parent="1" source="s3ld1V5aeFY15KHkYGV4-118" target="s3ld1V5aeFY15KHkYGV4-4">
          <mxGeometry relative="1" as="geometry" />
        </mxCell>
        <mxCell id="s3ld1V5aeFY15KHkYGV4-118" value="tempo_carência" style="ellipse;whiteSpace=wrap;html=1;fillColor=#f8cecc;strokeColor=#b85450;" vertex="1" parent="1">
          <mxGeometry x="380" y="-945" width="120" height="80" as="geometry" />
        </mxCell>
        <mxCell id="s3ld1V5aeFY15KHkYGV4-143" style="edgeStyle=orthogonalEdgeStyle;rounded=0;orthogonalLoop=1;jettySize=auto;html=1;" edge="1" parent="1" source="s3ld1V5aeFY15KHkYGV4-126" target="s3ld1V5aeFY15KHkYGV4-5">
          <mxGeometry relative="1" as="geometry" />
        </mxCell>
        <mxCell id="s3ld1V5aeFY15KHkYGV4-126" value="id_consulta" style="ellipse;whiteSpace=wrap;html=1;fillColor=#f8cecc;strokeColor=#b85450;" vertex="1" parent="1">
          <mxGeometry x="1280" y="90" width="120" height="80" as="geometry" />
        </mxCell>
        <mxCell id="s3ld1V5aeFY15KHkYGV4-140" style="edgeStyle=orthogonalEdgeStyle;rounded=0;orthogonalLoop=1;jettySize=auto;html=1;" edge="1" parent="1" source="s3ld1V5aeFY15KHkYGV4-127" target="s3ld1V5aeFY15KHkYGV4-132">
          <mxGeometry relative="1" as="geometry" />
        </mxCell>
        <mxCell id="s3ld1V5aeFY15KHkYGV4-127" value="data" style="ellipse;whiteSpace=wrap;html=1;fillColor=#f8cecc;strokeColor=#b85450;" vertex="1" parent="1">
          <mxGeometry x="1280" y="290" width="120" height="80" as="geometry" />
        </mxCell>
        <mxCell id="s3ld1V5aeFY15KHkYGV4-139" style="edgeStyle=orthogonalEdgeStyle;rounded=0;orthogonalLoop=1;jettySize=auto;html=1;" edge="1" parent="1" source="s3ld1V5aeFY15KHkYGV4-128" target="s3ld1V5aeFY15KHkYGV4-127">
          <mxGeometry relative="1" as="geometry" />
        </mxCell>
        <mxCell id="s3ld1V5aeFY15KHkYGV4-149" style="edgeStyle=orthogonalEdgeStyle;rounded=0;orthogonalLoop=1;jettySize=auto;html=1;" edge="1" parent="1" source="s3ld1V5aeFY15KHkYGV4-128" target="s3ld1V5aeFY15KHkYGV4-130">
          <mxGeometry relative="1" as="geometry" />
        </mxCell>
        <mxCell id="s3ld1V5aeFY15KHkYGV4-128" value="hora" style="ellipse;whiteSpace=wrap;html=1;fillColor=#f8cecc;strokeColor=#b85450;" vertex="1" parent="1">
          <mxGeometry x="1130" y="290" width="120" height="80" as="geometry" />
        </mxCell>
        <mxCell id="s3ld1V5aeFY15KHkYGV4-136" style="edgeStyle=orthogonalEdgeStyle;rounded=0;orthogonalLoop=1;jettySize=auto;html=1;" edge="1" parent="1" source="s3ld1V5aeFY15KHkYGV4-129" target="s3ld1V5aeFY15KHkYGV4-133">
          <mxGeometry relative="1" as="geometry" />
        </mxCell>
        <mxCell id="s3ld1V5aeFY15KHkYGV4-151" style="edgeStyle=orthogonalEdgeStyle;rounded=0;orthogonalLoop=1;jettySize=auto;html=1;" edge="1" parent="1" source="s3ld1V5aeFY15KHkYGV4-129" target="s3ld1V5aeFY15KHkYGV4-131">
          <mxGeometry relative="1" as="geometry" />
        </mxCell>
        <mxCell id="s3ld1V5aeFY15KHkYGV4-129" value="valor" style="ellipse;whiteSpace=wrap;html=1;fillColor=#f8cecc;strokeColor=#b85450;" vertex="1" parent="1">
          <mxGeometry x="1130" y="-10" width="120" height="80" as="geometry" />
        </mxCell>
        <mxCell id="s3ld1V5aeFY15KHkYGV4-138" style="edgeStyle=orthogonalEdgeStyle;rounded=0;orthogonalLoop=1;jettySize=auto;html=1;" edge="1" parent="1" source="s3ld1V5aeFY15KHkYGV4-130" target="s3ld1V5aeFY15KHkYGV4-132">
          <mxGeometry relative="1" as="geometry" />
        </mxCell>
        <mxCell id="s3ld1V5aeFY15KHkYGV4-150" style="edgeStyle=orthogonalEdgeStyle;rounded=0;orthogonalLoop=1;jettySize=auto;html=1;entryX=0.5;entryY=1;entryDx=0;entryDy=0;" edge="1" parent="1" source="s3ld1V5aeFY15KHkYGV4-130" target="s3ld1V5aeFY15KHkYGV4-131">
          <mxGeometry relative="1" as="geometry" />
        </mxCell>
        <mxCell id="s3ld1V5aeFY15KHkYGV4-130" value="número_carteira" style="ellipse;whiteSpace=wrap;html=1;fillColor=#f8cecc;strokeColor=#b85450;" vertex="1" parent="1">
          <mxGeometry x="1130" y="190" width="120" height="80" as="geometry" />
        </mxCell>
        <mxCell id="s3ld1V5aeFY15KHkYGV4-137" style="edgeStyle=orthogonalEdgeStyle;rounded=0;orthogonalLoop=1;jettySize=auto;html=1;" edge="1" parent="1" source="s3ld1V5aeFY15KHkYGV4-131" target="s3ld1V5aeFY15KHkYGV4-126">
          <mxGeometry relative="1" as="geometry" />
        </mxCell>
        <mxCell id="s3ld1V5aeFY15KHkYGV4-131" value="id_médico" style="ellipse;whiteSpace=wrap;html=1;fillColor=#f8cecc;strokeColor=#b85450;" vertex="1" parent="1">
          <mxGeometry x="1130" y="90" width="120" height="80" as="geometry" />
        </mxCell>
        <mxCell id="s3ld1V5aeFY15KHkYGV4-142" style="edgeStyle=orthogonalEdgeStyle;rounded=0;orthogonalLoop=1;jettySize=auto;html=1;" edge="1" parent="1" source="s3ld1V5aeFY15KHkYGV4-132" target="s3ld1V5aeFY15KHkYGV4-126">
          <mxGeometry relative="1" as="geometry" />
        </mxCell>
        <mxCell id="s3ld1V5aeFY15KHkYGV4-132" value="id_paciente" style="ellipse;whiteSpace=wrap;html=1;fillColor=#f8cecc;strokeColor=#b85450;" vertex="1" parent="1">
          <mxGeometry x="1280" y="190" width="120" height="80" as="geometry" />
        </mxCell>
        <mxCell id="s3ld1V5aeFY15KHkYGV4-141" style="edgeStyle=orthogonalEdgeStyle;rounded=0;orthogonalLoop=1;jettySize=auto;html=1;" edge="1" parent="1" source="s3ld1V5aeFY15KHkYGV4-133" target="s3ld1V5aeFY15KHkYGV4-126">
          <mxGeometry relative="1" as="geometry" />
        </mxCell>
        <mxCell id="s3ld1V5aeFY15KHkYGV4-133" value="id_especialidade" style="ellipse;whiteSpace=wrap;html=1;fillColor=#f8cecc;strokeColor=#b85450;" vertex="1" parent="1">
          <mxGeometry x="1280" y="-10" width="120" height="80" as="geometry" />
        </mxCell>
        <mxCell id="s3ld1V5aeFY15KHkYGV4-157" style="edgeStyle=orthogonalEdgeStyle;rounded=0;orthogonalLoop=1;jettySize=auto;html=1;" edge="1" parent="1" source="s3ld1V5aeFY15KHkYGV4-152" target="s3ld1V5aeFY15KHkYGV4-155">
          <mxGeometry relative="1" as="geometry" />
        </mxCell>
        <mxCell id="s3ld1V5aeFY15KHkYGV4-152" value="id_receita" style="ellipse;whiteSpace=wrap;html=1;fillColor=#f8cecc;strokeColor=#b85450;" vertex="1" parent="1">
          <mxGeometry x="1140" y="-380" width="120" height="80" as="geometry" />
        </mxCell>
        <mxCell id="s3ld1V5aeFY15KHkYGV4-160" style="edgeStyle=orthogonalEdgeStyle;rounded=0;orthogonalLoop=1;jettySize=auto;html=1;" edge="1" parent="1" source="s3ld1V5aeFY15KHkYGV4-153" target="s3ld1V5aeFY15KHkYGV4-152">
          <mxGeometry relative="1" as="geometry" />
        </mxCell>
        <mxCell id="s3ld1V5aeFY15KHkYGV4-153" value="id_consulta" style="ellipse;whiteSpace=wrap;html=1;fillColor=#f8cecc;strokeColor=#b85450;" vertex="1" parent="1">
          <mxGeometry x="1280" y="-380" width="120" height="80" as="geometry" />
        </mxCell>
        <mxCell id="s3ld1V5aeFY15KHkYGV4-158" style="edgeStyle=orthogonalEdgeStyle;rounded=0;orthogonalLoop=1;jettySize=auto;html=1;" edge="1" parent="1" source="s3ld1V5aeFY15KHkYGV4-154" target="s3ld1V5aeFY15KHkYGV4-155">
          <mxGeometry relative="1" as="geometry" />
        </mxCell>
        <mxCell id="s3ld1V5aeFY15KHkYGV4-154" value="medicamento" style="ellipse;whiteSpace=wrap;html=1;fillColor=#f8cecc;strokeColor=#b85450;" vertex="1" parent="1">
          <mxGeometry x="1140" y="-180" width="120" height="80" as="geometry" />
        </mxCell>
        <mxCell id="s3ld1V5aeFY15KHkYGV4-162" style="edgeStyle=orthogonalEdgeStyle;rounded=0;orthogonalLoop=1;jettySize=auto;html=1;" edge="1" parent="1" source="s3ld1V5aeFY15KHkYGV4-155" target="s3ld1V5aeFY15KHkYGV4-6">
          <mxGeometry relative="1" as="geometry" />
        </mxCell>
        <mxCell id="s3ld1V5aeFY15KHkYGV4-155" value="quantidade" style="ellipse;whiteSpace=wrap;html=1;fillColor=#f8cecc;strokeColor=#b85450;" vertex="1" parent="1">
          <mxGeometry x="1140" y="-280" width="120" height="80" as="geometry" />
        </mxCell>
        <mxCell id="s3ld1V5aeFY15KHkYGV4-159" style="edgeStyle=orthogonalEdgeStyle;rounded=0;orthogonalLoop=1;jettySize=auto;html=1;" edge="1" parent="1" source="s3ld1V5aeFY15KHkYGV4-156" target="s3ld1V5aeFY15KHkYGV4-155">
          <mxGeometry relative="1" as="geometry" />
        </mxCell>
        <mxCell id="s3ld1V5aeFY15KHkYGV4-156" value="instruções" style="ellipse;whiteSpace=wrap;html=1;fillColor=#f8cecc;strokeColor=#b85450;" vertex="1" parent="1">
          <mxGeometry x="1280" y="-280" width="120" height="80" as="geometry" />
        </mxCell>
      </root>
    </mxGraphModel>
  </diagram>
</mxfile>
